<svg xmlns="http://www.w3.org/2000/svg" width="227.419" height="149.831"><g fill="none" stroke="#ce9b99"><path d="M80.221 65.709c40.61 2.074 3.072 47.264 43.455 49.464"/><g transform="translate(-34.42 53.28)" stroke-width=".62"><path d="M49.621 9.107V6.152a3.095 3.095 0 013.101-3.101h55.824a3.095 3.095 0 013.101 3.101v3.134m0 6.205v3.067a3.095 3.095 0 01-3.101 3.1H52.722a3.095 3.095 0 01-3.101-3.1V15.49M68.229 3.051v18.608"/><rect y="9.254" x="46.52" height="6.203" width="6.203" ry="1.861" rx="1.861"/><rect y="9.254" x="108.546" height="6.203" width="6.203" ry="1.861" rx="1.861"/></g><g transform="translate(-34.42 53.28)" stroke-width=".62"><path d="M161.268 59.063v-3.29a3.095 3.095 0 013.101-3.101h55.824a3.095 3.095 0 013.101 3.101v3.102m0 6.188v3.115a3.095 3.095 0 01-3.101 3.102h-55.824a3.095 3.095 0 01-3.101-3.102v-2.99M179.876 52.672V71.28"/><rect y="58.875" x="158.167" rx="1.861" ry="1.861" width="6.203" height="6.203"/><rect y="58.875" x="220.193" rx="1.861" ry="1.861" width="6.203" height="6.203"/></g><g transform="translate(-34.42 53.28)" stroke-width=".62"><path d="M223.294 15.563v2.993a3.095 3.095 0 01-3.101 3.102h-55.824a3.095 3.095 0 01-3.101-3.102V6.151a3.095 3.095 0 013.101-3.101h55.824a3.095 3.095 0 013.101 3.101v2.974M179.876 3.05v18.608"/><rect y="9.253" x="220.193" height="6.203" width="6.203" ry="1.861" rx="1.861"/></g><g transform="translate(-34.42 53.28)" stroke-width=".62"><path d="M49.621 59v-3.227a3.095 3.095 0 013.101-3.101h55.824a3.095 3.095 0 013.101 3.101v12.405a3.095 3.095 0 01-3.101 3.102H52.722a3.095 3.095 0 01-3.101-3.102V65M68.229 52.672V71.28"/><rect y="58.875" x="46.52" height="6.203" width="6.203" ry="1.861" rx="1.861"/></g><path d="M11.958 15.868C7 15.615 3.207 14.72.295 13.338"/><g transform="translate(77.227 -45.962)" stroke-width=".62"><path d="M49.621 59v-3.227a3.095 3.095 0 013.101-3.101h55.824a3.095 3.095 0 013.101 3.101v12.405a3.095 3.095 0 01-3.101 3.102H52.722a3.095 3.095 0 01-3.101-3.102V65M68.229 52.672V71.28"/><rect rx="1.861" ry="1.861" width="6.203" height="6.203" x="46.52" y="58.875"/></g><path d="M123.677 15.78c-40.61 2.073-3.072 47.263-43.455 49.463"/><g transform="translate(-34.42 -45.962)" stroke-width=".62"><path d="M49.621 59v-3.227a3.095 3.095 0 013.101-3.101h55.824a3.095 3.095 0 013.101 3.101v12.405a3.095 3.095 0 01-3.101 3.102H52.722a3.095 3.095 0 01-3.101-3.102V65M68.229 52.672V71.28"/><rect rx="1.861" ry="1.861" width="6.203" height="6.203" x="46.52" y="58.875"/></g><path d="M192.253 65.55h34.614M214.911 149.725c-3.072-14.08 3.263-33.35-22.76-34.769M226.805 113.557c-25.783-8.131 2.33-45.998-34.552-48.008M11.81 115.013c-4.92-.25-8.694-1.135-11.597-2.5M.289 65.55H12.36"/></g><path d="M80.221 65.709c40.61 2.074 3.072 47.264 43.455 49.464" fill="none" stroke="#ce9b99"/><g transform="translate(-34.42 53.28)" fill="none" stroke="#ce9b99" stroke-width=".62"><path d="M49.621 9.107V6.152a3.095 3.095 0 013.101-3.101h55.824a3.095 3.095 0 013.101 3.101v3.134m0 6.205v3.067a3.095 3.095 0 01-3.101 3.1H52.722a3.095 3.095 0 01-3.101-3.1V15.49M68.229 3.051v18.608"/><rect y="9.254" x="46.52" height="6.203" width="6.203" ry="1.861" rx="1.861"/><rect y="9.254" x="108.546" height="6.203" width="6.203" ry="1.861" rx="1.861"/></g><g transform="translate(-34.42 53.28)" fill="none" stroke="#ce9b99" stroke-width=".62"><path d="M161.268 59.063v-3.29a3.095 3.095 0 013.101-3.101h55.824a3.095 3.095 0 013.101 3.101v3.102m0 6.188v3.115a3.095 3.095 0 01-3.101 3.102h-55.824a3.095 3.095 0 01-3.101-3.102v-2.99M179.876 52.672V71.28"/><rect y="58.875" x="158.167" rx="1.861" ry="1.861" width="6.203" height="6.203"/><rect y="58.875" x="220.193" rx="1.861" ry="1.861" width="6.203" height="6.203"/></g><g transform="translate(-34.42 53.28)" fill="none" stroke="#ce9b99" stroke-width=".62"><path d="M223.294 15.563v2.993a3.095 3.095 0 01-3.101 3.102h-55.824a3.095 3.095 0 01-3.101-3.102V6.151a3.095 3.095 0 013.101-3.101h55.824a3.095 3.095 0 013.101 3.101v2.974M179.876 3.05v18.608"/><rect y="9.253" x="220.193" height="6.203" width="6.203" ry="1.861" rx="1.861"/></g><g transform="translate(-34.42 53.28)" fill="none" stroke="#ce9b99" stroke-width=".62"><path d="M49.621 59v-3.227a3.095 3.095 0 013.101-3.101h55.824a3.095 3.095 0 013.101 3.101v12.405a3.095 3.095 0 01-3.101 3.102H52.722a3.095 3.095 0 01-3.101-3.102V65M68.229 52.672V71.28"/><rect y="58.875" x="46.52" height="6.203" width="6.203" ry="1.861" rx="1.861"/></g><path d="M11.958 15.868C7 15.615 3.207 14.72.295 13.338" fill="none" stroke="#ce9b99"/><g transform="translate(77.227 -45.962)" fill="none" stroke="#ce9b99" stroke-width=".62"><path d="M49.621 59v-3.227a3.095 3.095 0 013.101-3.101h55.824a3.095 3.095 0 013.101 3.101v12.405a3.095 3.095 0 01-3.101 3.102H52.722a3.095 3.095 0 01-3.101-3.102V65M68.229 52.672V71.28"/><rect rx="1.861" ry="1.861" width="6.203" height="6.203" x="46.52" y="58.875"/></g><path d="M123.677 15.78c-40.61 2.073-3.072 47.263-43.455 49.463" fill="none" stroke="#ce9b99"/><g transform="translate(-34.42 -45.962)" fill="none" stroke="#ce9b99" stroke-width=".62"><path d="M49.621 59v-3.227a3.095 3.095 0 013.101-3.101h55.824a3.095 3.095 0 013.101 3.101v12.405a3.095 3.095 0 01-3.101 3.102H52.722a3.095 3.095 0 01-3.101-3.102V65M68.229 52.672V71.28"/><rect rx="1.861" ry="1.861" width="6.203" height="6.203" x="46.52" y="58.875"/></g><path d="M192.253 65.55h34.614M214.911 149.725c-3.072-14.08 3.263-33.35-22.76-34.769M226.805 113.557c-25.783-8.131 2.33-45.998-34.552-48.008M11.81 115.013c-4.92-.25-8.694-1.135-11.597-2.5M.289 65.55H12.36M214.279.096c1.258 6.445 4.304 11.903 13.01 14.239" fill="none" stroke="#ce9b99"/></svg>